G04 #@! TF.GenerationSoftware,KiCad,Pcbnew,(5.1.10)-1*
G04 #@! TF.CreationDate,2021-09-05T18:13:48+09:00*
G04 #@! TF.ProjectId,CellBalancing_BQ77915_5S,43656c6c-4261-46c6-916e-63696e675f42,rev?*
G04 #@! TF.SameCoordinates,Original*
G04 #@! TF.FileFunction,Soldermask,Top*
G04 #@! TF.FilePolarity,Negative*
%FSLAX46Y46*%
G04 Gerber Fmt 4.6, Leading zero omitted, Abs format (unit mm)*
G04 Created by KiCad (PCBNEW (5.1.10)-1) date 2021-09-05 18:13:48*
%MOMM*%
%LPD*%
G01*
G04 APERTURE LIST*
%ADD10C,0.100000*%
%ADD11O,1.700000X1.700000*%
%ADD12R,1.700000X1.700000*%
%ADD13R,1.100000X0.400000*%
%ADD14R,0.750000X0.800000*%
%ADD15R,0.800000X0.750000*%
%ADD16C,5.719200*%
%ADD17O,1.950000X1.700000*%
%ADD18C,0.152400*%
%ADD19R,0.500000X0.900000*%
%ADD20R,0.900000X1.700000*%
%ADD21R,0.900000X0.500000*%
%ADD22R,0.863600X0.304800*%
G04 APERTURE END LIST*
D10*
G36*
X140200000Y-117700000D02*
G01*
X139100000Y-117700000D01*
X139100000Y-115300000D01*
X140200000Y-115300000D01*
X140200000Y-114600000D01*
X140500000Y-114600000D01*
X140500000Y-118400000D01*
X140200000Y-118400000D01*
X140200000Y-117700000D01*
G37*
X140200000Y-117700000D02*
X139100000Y-117700000D01*
X139100000Y-115300000D01*
X140200000Y-115300000D01*
X140200000Y-114600000D01*
X140500000Y-114600000D01*
X140500000Y-118400000D01*
X140200000Y-118400000D01*
X140200000Y-117700000D01*
G36*
X135800000Y-115300000D02*
G01*
X136900000Y-115300000D01*
X136900000Y-117700000D01*
X135800000Y-117700000D01*
X135800000Y-118400000D01*
X135500000Y-118400000D01*
X135500000Y-114600000D01*
X135800000Y-114600000D01*
X135800000Y-115300000D01*
G37*
X135800000Y-115300000D02*
X136900000Y-115300000D01*
X136900000Y-117700000D01*
X135800000Y-117700000D01*
X135800000Y-118400000D01*
X135500000Y-118400000D01*
X135500000Y-114600000D01*
X135800000Y-114600000D01*
X135800000Y-115300000D01*
D11*
X151460000Y-102280000D03*
X154000000Y-102280000D03*
X151460000Y-104820000D03*
X154000000Y-104820000D03*
X151460000Y-107360000D03*
X154000000Y-107360000D03*
X151460000Y-109900000D03*
D12*
X154000000Y-109900000D03*
D13*
X140450000Y-99825000D03*
X140450000Y-100475000D03*
X140450000Y-101125000D03*
X140450000Y-101775000D03*
X140450000Y-102425000D03*
X140450000Y-103075000D03*
X140450000Y-103725000D03*
X140450000Y-104375000D03*
X140450000Y-105025000D03*
X140450000Y-105675000D03*
X140450000Y-106325000D03*
X140450000Y-106975000D03*
X134750000Y-106975000D03*
X134750000Y-106325000D03*
X134750000Y-105675000D03*
X134750000Y-105025000D03*
X134750000Y-104375000D03*
X134750000Y-103725000D03*
X134750000Y-103075000D03*
X134750000Y-102425000D03*
X134750000Y-101775000D03*
X134750000Y-101125000D03*
X134750000Y-100475000D03*
X134750000Y-99825000D03*
D14*
X129600000Y-100550000D03*
X129600000Y-99050000D03*
X129600000Y-103450000D03*
X129600000Y-101950000D03*
X129600000Y-104850000D03*
X129600000Y-106350000D03*
X129600000Y-109250000D03*
X129600000Y-107750000D03*
X129600000Y-110650000D03*
X129600000Y-112150000D03*
D15*
X131150000Y-113600000D03*
X129650000Y-113600000D03*
X133250000Y-98800000D03*
X131750000Y-98800000D03*
X131750000Y-100200000D03*
X133250000Y-100200000D03*
D16*
X115100000Y-110300000D03*
X115100000Y-103100000D03*
G36*
G01*
X122275000Y-99450000D02*
X123725000Y-99450000D01*
G75*
G02*
X123975000Y-99700000I0J-250000D01*
G01*
X123975000Y-100900000D01*
G75*
G02*
X123725000Y-101150000I-250000J0D01*
G01*
X122275000Y-101150000D01*
G75*
G02*
X122025000Y-100900000I0J250000D01*
G01*
X122025000Y-99700000D01*
G75*
G02*
X122275000Y-99450000I250000J0D01*
G01*
G37*
D17*
X123000000Y-102800000D03*
X123000000Y-105300000D03*
X123000000Y-107800000D03*
X123000000Y-110300000D03*
X123000000Y-112800000D03*
D18*
G36*
X145150000Y-109100000D02*
G01*
X145150000Y-108600000D01*
X145150602Y-108600000D01*
X145150602Y-108575466D01*
X145155412Y-108526635D01*
X145164984Y-108478510D01*
X145179228Y-108431555D01*
X145198005Y-108386222D01*
X145221136Y-108342949D01*
X145248396Y-108302150D01*
X145279524Y-108264221D01*
X145314221Y-108229524D01*
X145352150Y-108198396D01*
X145392949Y-108171136D01*
X145436222Y-108148005D01*
X145481555Y-108129228D01*
X145528510Y-108114984D01*
X145576635Y-108105412D01*
X145625466Y-108100602D01*
X145650000Y-108100602D01*
X145650000Y-108100000D01*
X146150000Y-108100000D01*
X146150000Y-108100602D01*
X146174534Y-108100602D01*
X146223365Y-108105412D01*
X146271490Y-108114984D01*
X146318445Y-108129228D01*
X146363778Y-108148005D01*
X146407051Y-108171136D01*
X146447850Y-108198396D01*
X146485779Y-108229524D01*
X146520476Y-108264221D01*
X146551604Y-108302150D01*
X146578864Y-108342949D01*
X146601995Y-108386222D01*
X146620772Y-108431555D01*
X146635016Y-108478510D01*
X146644588Y-108526635D01*
X146649398Y-108575466D01*
X146649398Y-108600000D01*
X146650000Y-108600000D01*
X146650000Y-109100000D01*
X145150000Y-109100000D01*
G37*
G36*
X146649398Y-109900000D02*
G01*
X146649398Y-109924534D01*
X146644588Y-109973365D01*
X146635016Y-110021490D01*
X146620772Y-110068445D01*
X146601995Y-110113778D01*
X146578864Y-110157051D01*
X146551604Y-110197850D01*
X146520476Y-110235779D01*
X146485779Y-110270476D01*
X146447850Y-110301604D01*
X146407051Y-110328864D01*
X146363778Y-110351995D01*
X146318445Y-110370772D01*
X146271490Y-110385016D01*
X146223365Y-110394588D01*
X146174534Y-110399398D01*
X146150000Y-110399398D01*
X146150000Y-110400000D01*
X145650000Y-110400000D01*
X145650000Y-110399398D01*
X145625466Y-110399398D01*
X145576635Y-110394588D01*
X145528510Y-110385016D01*
X145481555Y-110370772D01*
X145436222Y-110351995D01*
X145392949Y-110328864D01*
X145352150Y-110301604D01*
X145314221Y-110270476D01*
X145279524Y-110235779D01*
X145248396Y-110197850D01*
X145221136Y-110157051D01*
X145198005Y-110113778D01*
X145179228Y-110068445D01*
X145164984Y-110021490D01*
X145155412Y-109973365D01*
X145150602Y-109924534D01*
X145150602Y-109900000D01*
X145150000Y-109900000D01*
X145150000Y-109400000D01*
X146650000Y-109400000D01*
X146650000Y-109900000D01*
X146649398Y-109900000D01*
G37*
D19*
X134450000Y-98500000D03*
X135950000Y-98500000D03*
X128450000Y-98500000D03*
X126950000Y-98500000D03*
X126950000Y-101200000D03*
X128450000Y-101200000D03*
X128450000Y-104100000D03*
X126950000Y-104100000D03*
X126950000Y-107100000D03*
X128450000Y-107100000D03*
X128450000Y-109900000D03*
X126950000Y-109900000D03*
X130950000Y-115000000D03*
X129450000Y-115000000D03*
D20*
X129750000Y-117700000D03*
X132650000Y-117700000D03*
D19*
X134650000Y-108400000D03*
X133150000Y-108400000D03*
X134650000Y-109900000D03*
X133150000Y-109900000D03*
X140750000Y-108400000D03*
X142250000Y-108400000D03*
X140750000Y-109900000D03*
X142250000Y-109900000D03*
X144350000Y-101200000D03*
X145850000Y-101200000D03*
X145850000Y-103400000D03*
X144350000Y-103400000D03*
X144350000Y-105200000D03*
X145850000Y-105200000D03*
X145850000Y-106700000D03*
X144350000Y-106700000D03*
D21*
X143800000Y-109750000D03*
X143800000Y-108250000D03*
X147200000Y-103250000D03*
X147200000Y-104750000D03*
D22*
X138725200Y-117474999D03*
X138725200Y-116825001D03*
X138725200Y-116174999D03*
X138725200Y-115525001D03*
X141874800Y-115525001D03*
X141874800Y-116174999D03*
X141874800Y-116825001D03*
X141874800Y-117474999D03*
X134125200Y-115525001D03*
X134125200Y-116174999D03*
X134125200Y-116825001D03*
X134125200Y-117474999D03*
X137274800Y-117474999D03*
X137274800Y-116825001D03*
X137274800Y-116174999D03*
X137274800Y-115525001D03*
M02*
