G04 #@! TF.GenerationSoftware,KiCad,Pcbnew,(5.1.10)-1*
G04 #@! TF.CreationDate,2021-09-05T18:13:48+09:00*
G04 #@! TF.ProjectId,CellBalancing_BQ77915_5S,43656c6c-4261-46c6-916e-63696e675f42,rev?*
G04 #@! TF.SameCoordinates,Original*
G04 #@! TF.FileFunction,Legend,Top*
G04 #@! TF.FilePolarity,Positive*
%FSLAX46Y46*%
G04 Gerber Fmt 4.6, Leading zero omitted, Abs format (unit mm)*
G04 Created by KiCad (PCBNEW (5.1.10)-1) date 2021-09-05 18:13:48*
%MOMM*%
%LPD*%
G01*
G04 APERTURE LIST*
%ADD10C,0.150000*%
%ADD11C,0.120000*%
%ADD12C,0.127000*%
%ADD13C,0.152400*%
G04 APERTURE END LIST*
D10*
X141752380Y-96632142D02*
X141704761Y-96679761D01*
X141561904Y-96727380D01*
X141466666Y-96727380D01*
X141323809Y-96679761D01*
X141228571Y-96584523D01*
X141180952Y-96489285D01*
X141133333Y-96298809D01*
X141133333Y-96155952D01*
X141180952Y-95965476D01*
X141228571Y-95870238D01*
X141323809Y-95775000D01*
X141466666Y-95727380D01*
X141561904Y-95727380D01*
X141704761Y-95775000D01*
X141752380Y-95822619D01*
X142561904Y-96679761D02*
X142466666Y-96727380D01*
X142276190Y-96727380D01*
X142180952Y-96679761D01*
X142133333Y-96584523D01*
X142133333Y-96203571D01*
X142180952Y-96108333D01*
X142276190Y-96060714D01*
X142466666Y-96060714D01*
X142561904Y-96108333D01*
X142609523Y-96203571D01*
X142609523Y-96298809D01*
X142133333Y-96394047D01*
X143180952Y-96727380D02*
X143085714Y-96679761D01*
X143038095Y-96584523D01*
X143038095Y-95727380D01*
X143704761Y-96727380D02*
X143609523Y-96679761D01*
X143561904Y-96584523D01*
X143561904Y-95727380D01*
X145180952Y-96203571D02*
X145323809Y-96251190D01*
X145371428Y-96298809D01*
X145419047Y-96394047D01*
X145419047Y-96536904D01*
X145371428Y-96632142D01*
X145323809Y-96679761D01*
X145228571Y-96727380D01*
X144847619Y-96727380D01*
X144847619Y-95727380D01*
X145180952Y-95727380D01*
X145276190Y-95775000D01*
X145323809Y-95822619D01*
X145371428Y-95917857D01*
X145371428Y-96013095D01*
X145323809Y-96108333D01*
X145276190Y-96155952D01*
X145180952Y-96203571D01*
X144847619Y-96203571D01*
X146276190Y-96727380D02*
X146276190Y-96203571D01*
X146228571Y-96108333D01*
X146133333Y-96060714D01*
X145942857Y-96060714D01*
X145847619Y-96108333D01*
X146276190Y-96679761D02*
X146180952Y-96727380D01*
X145942857Y-96727380D01*
X145847619Y-96679761D01*
X145800000Y-96584523D01*
X145800000Y-96489285D01*
X145847619Y-96394047D01*
X145942857Y-96346428D01*
X146180952Y-96346428D01*
X146276190Y-96298809D01*
X146895238Y-96727380D02*
X146800000Y-96679761D01*
X146752380Y-96584523D01*
X146752380Y-95727380D01*
X147704761Y-96727380D02*
X147704761Y-96203571D01*
X147657142Y-96108333D01*
X147561904Y-96060714D01*
X147371428Y-96060714D01*
X147276190Y-96108333D01*
X147704761Y-96679761D02*
X147609523Y-96727380D01*
X147371428Y-96727380D01*
X147276190Y-96679761D01*
X147228571Y-96584523D01*
X147228571Y-96489285D01*
X147276190Y-96394047D01*
X147371428Y-96346428D01*
X147609523Y-96346428D01*
X147704761Y-96298809D01*
X148180952Y-96060714D02*
X148180952Y-96727380D01*
X148180952Y-96155952D02*
X148228571Y-96108333D01*
X148323809Y-96060714D01*
X148466666Y-96060714D01*
X148561904Y-96108333D01*
X148609523Y-96203571D01*
X148609523Y-96727380D01*
X149514285Y-96679761D02*
X149419047Y-96727380D01*
X149228571Y-96727380D01*
X149133333Y-96679761D01*
X149085714Y-96632142D01*
X149038095Y-96536904D01*
X149038095Y-96251190D01*
X149085714Y-96155952D01*
X149133333Y-96108333D01*
X149228571Y-96060714D01*
X149419047Y-96060714D01*
X149514285Y-96108333D01*
X149942857Y-96727380D02*
X149942857Y-96060714D01*
X149942857Y-95727380D02*
X149895238Y-95775000D01*
X149942857Y-95822619D01*
X149990476Y-95775000D01*
X149942857Y-95727380D01*
X149942857Y-95822619D01*
X150419047Y-96060714D02*
X150419047Y-96727380D01*
X150419047Y-96155952D02*
X150466666Y-96108333D01*
X150561904Y-96060714D01*
X150704761Y-96060714D01*
X150800000Y-96108333D01*
X150847619Y-96203571D01*
X150847619Y-96727380D01*
X151752380Y-96060714D02*
X151752380Y-96870238D01*
X151704761Y-96965476D01*
X151657142Y-97013095D01*
X151561904Y-97060714D01*
X151419047Y-97060714D01*
X151323809Y-97013095D01*
X151752380Y-96679761D02*
X151657142Y-96727380D01*
X151466666Y-96727380D01*
X151371428Y-96679761D01*
X151323809Y-96632142D01*
X151276190Y-96536904D01*
X151276190Y-96251190D01*
X151323809Y-96155952D01*
X151371428Y-96108333D01*
X151466666Y-96060714D01*
X151657142Y-96060714D01*
X151752380Y-96108333D01*
X153466666Y-95727380D02*
X152990476Y-95727380D01*
X152942857Y-96203571D01*
X152990476Y-96155952D01*
X153085714Y-96108333D01*
X153323809Y-96108333D01*
X153419047Y-96155952D01*
X153466666Y-96203571D01*
X153514285Y-96298809D01*
X153514285Y-96536904D01*
X153466666Y-96632142D01*
X153419047Y-96679761D01*
X153323809Y-96727380D01*
X153085714Y-96727380D01*
X152990476Y-96679761D01*
X152942857Y-96632142D01*
X153895238Y-96679761D02*
X154038095Y-96727380D01*
X154276190Y-96727380D01*
X154371428Y-96679761D01*
X154419047Y-96632142D01*
X154466666Y-96536904D01*
X154466666Y-96441666D01*
X154419047Y-96346428D01*
X154371428Y-96298809D01*
X154276190Y-96251190D01*
X154085714Y-96203571D01*
X153990476Y-96155952D01*
X153942857Y-96108333D01*
X153895238Y-96013095D01*
X153895238Y-95917857D01*
X153942857Y-95822619D01*
X153990476Y-95775000D01*
X154085714Y-95727380D01*
X154323809Y-95727380D01*
X154466666Y-95775000D01*
X143014285Y-97710714D02*
X143252380Y-98377380D01*
X143490476Y-97710714D01*
X143871428Y-98282142D02*
X143919047Y-98329761D01*
X143871428Y-98377380D01*
X143823809Y-98329761D01*
X143871428Y-98282142D01*
X143871428Y-98377380D01*
X144538095Y-97377380D02*
X144633333Y-97377380D01*
X144728571Y-97425000D01*
X144776190Y-97472619D01*
X144823809Y-97567857D01*
X144871428Y-97758333D01*
X144871428Y-97996428D01*
X144823809Y-98186904D01*
X144776190Y-98282142D01*
X144728571Y-98329761D01*
X144633333Y-98377380D01*
X144538095Y-98377380D01*
X144442857Y-98329761D01*
X144395238Y-98282142D01*
X144347619Y-98186904D01*
X144300000Y-97996428D01*
X144300000Y-97758333D01*
X144347619Y-97567857D01*
X144395238Y-97472619D01*
X144442857Y-97425000D01*
X144538095Y-97377380D01*
X145300000Y-98282142D02*
X145347619Y-98329761D01*
X145300000Y-98377380D01*
X145252380Y-98329761D01*
X145300000Y-98282142D01*
X145300000Y-98377380D01*
X146300000Y-98377380D02*
X145728571Y-98377380D01*
X146014285Y-98377380D02*
X146014285Y-97377380D01*
X145919047Y-97520238D01*
X145823809Y-97615476D01*
X145728571Y-97663095D01*
X147490476Y-98377380D02*
X147490476Y-97377380D01*
X147490476Y-97758333D02*
X147585714Y-97710714D01*
X147776190Y-97710714D01*
X147871428Y-97758333D01*
X147919047Y-97805952D01*
X147966666Y-97901190D01*
X147966666Y-98186904D01*
X147919047Y-98282142D01*
X147871428Y-98329761D01*
X147776190Y-98377380D01*
X147585714Y-98377380D01*
X147490476Y-98329761D01*
X148300000Y-97710714D02*
X148538095Y-98377380D01*
X148776190Y-97710714D02*
X148538095Y-98377380D01*
X148442857Y-98615476D01*
X148395238Y-98663095D01*
X148300000Y-98710714D01*
X149919047Y-98377380D02*
X149919047Y-97377380D01*
X150490476Y-98377380D01*
X150490476Y-97377380D01*
X151109523Y-98377380D02*
X151014285Y-98329761D01*
X150966666Y-98282142D01*
X150919047Y-98186904D01*
X150919047Y-97901190D01*
X150966666Y-97805952D01*
X151014285Y-97758333D01*
X151109523Y-97710714D01*
X151252380Y-97710714D01*
X151347619Y-97758333D01*
X151395238Y-97805952D01*
X151442857Y-97901190D01*
X151442857Y-98186904D01*
X151395238Y-98282142D01*
X151347619Y-98329761D01*
X151252380Y-98377380D01*
X151109523Y-98377380D01*
X151871428Y-98377380D02*
X151871428Y-97710714D01*
X151871428Y-97901190D02*
X151919047Y-97805952D01*
X151966666Y-97758333D01*
X152061904Y-97710714D01*
X152157142Y-97710714D01*
X152490476Y-98377380D02*
X152490476Y-97710714D01*
X152490476Y-97377380D02*
X152442857Y-97425000D01*
X152490476Y-97472619D01*
X152538095Y-97425000D01*
X152490476Y-97377380D01*
X152490476Y-97472619D01*
D11*
X150300000Y-101200000D02*
X155200000Y-101200000D01*
X150300000Y-105900000D02*
X150300000Y-101200000D01*
X155200000Y-105900000D02*
X150300000Y-105900000D01*
X155200000Y-101200000D02*
X155200000Y-105900000D01*
X150300000Y-111000000D02*
X150300000Y-106300000D01*
X155200000Y-111000000D02*
X150300000Y-111000000D01*
X155200000Y-106300000D02*
X155200000Y-111000000D01*
X150300000Y-106300000D02*
X155200000Y-106300000D01*
D10*
X151938095Y-111300000D02*
X151842857Y-111252380D01*
X151700000Y-111252380D01*
X151557142Y-111300000D01*
X151461904Y-111395238D01*
X151414285Y-111490476D01*
X151366666Y-111680952D01*
X151366666Y-111823809D01*
X151414285Y-112014285D01*
X151461904Y-112109523D01*
X151557142Y-112204761D01*
X151700000Y-112252380D01*
X151795238Y-112252380D01*
X151938095Y-112204761D01*
X151985714Y-112157142D01*
X151985714Y-111823809D01*
X151795238Y-111823809D01*
X152414285Y-112252380D02*
X152414285Y-111252380D01*
X152985714Y-112252380D01*
X152985714Y-111252380D01*
X153461904Y-112252380D02*
X153461904Y-111252380D01*
X153700000Y-111252380D01*
X153842857Y-111300000D01*
X153938095Y-111395238D01*
X153985714Y-111490476D01*
X154033333Y-111680952D01*
X154033333Y-111823809D01*
X153985714Y-112014285D01*
X153938095Y-112109523D01*
X153842857Y-112204761D01*
X153700000Y-112252380D01*
X153461904Y-112252380D01*
X151038095Y-99952380D02*
X151371428Y-100952380D01*
X151704761Y-99952380D01*
X152228571Y-99952380D02*
X152419047Y-99952380D01*
X152514285Y-100000000D01*
X152609523Y-100095238D01*
X152657142Y-100285714D01*
X152657142Y-100619047D01*
X152609523Y-100809523D01*
X152514285Y-100904761D01*
X152419047Y-100952380D01*
X152228571Y-100952380D01*
X152133333Y-100904761D01*
X152038095Y-100809523D01*
X151990476Y-100619047D01*
X151990476Y-100285714D01*
X152038095Y-100095238D01*
X152133333Y-100000000D01*
X152228571Y-99952380D01*
X153085714Y-99952380D02*
X153085714Y-100761904D01*
X153133333Y-100857142D01*
X153180952Y-100904761D01*
X153276190Y-100952380D01*
X153466666Y-100952380D01*
X153561904Y-100904761D01*
X153609523Y-100857142D01*
X153657142Y-100761904D01*
X153657142Y-99952380D01*
X153990476Y-99952380D02*
X154561904Y-99952380D01*
X154276190Y-100952380D02*
X154276190Y-99952380D01*
X135275000Y-107425000D02*
X139925000Y-107425000D01*
X134200000Y-99325000D02*
X139925000Y-99325000D01*
X135275000Y-107425000D02*
X135275000Y-107400000D01*
X139925000Y-107425000D02*
X139925000Y-107400000D01*
X139925000Y-99375000D02*
X139925000Y-99400000D01*
D11*
X129000000Y-100150000D02*
X129000000Y-99450000D01*
X130200000Y-99450000D02*
X130200000Y-100150000D01*
X129000000Y-103050000D02*
X129000000Y-102350000D01*
X130200000Y-102350000D02*
X130200000Y-103050000D01*
X130200000Y-105250000D02*
X130200000Y-105950000D01*
X129000000Y-105950000D02*
X129000000Y-105250000D01*
X129000000Y-108850000D02*
X129000000Y-108150000D01*
X130200000Y-108150000D02*
X130200000Y-108850000D01*
X130200000Y-111050000D02*
X130200000Y-111750000D01*
X129000000Y-111750000D02*
X129000000Y-111050000D01*
X130750000Y-114200000D02*
X130050000Y-114200000D01*
X130050000Y-113000000D02*
X130750000Y-113000000D01*
X132850000Y-99400000D02*
X132150000Y-99400000D01*
X132150000Y-98200000D02*
X132850000Y-98200000D01*
X132150000Y-99600000D02*
X132850000Y-99600000D01*
X132850000Y-100800000D02*
X132150000Y-100800000D01*
D12*
X111600000Y-98900000D02*
X118600000Y-98900000D01*
X119100000Y-99400000D02*
X119100000Y-112000000D01*
X119100000Y-112000000D02*
X116600000Y-114500000D01*
X116600000Y-114500000D02*
X113600000Y-114500000D01*
X113600000Y-114500000D02*
X111100000Y-112000000D01*
X111100000Y-112000000D02*
X111100000Y-99400000D01*
X113800000Y-114200000D02*
X116400000Y-114200000D01*
X116400000Y-114200000D02*
X118800000Y-111800000D01*
X118800000Y-111800000D02*
X118800000Y-99450000D01*
X118550000Y-99200000D02*
X111650000Y-99200000D01*
X111400000Y-99450000D02*
X111400000Y-106200000D01*
X111400000Y-106200000D02*
X111400000Y-106300000D01*
X111400000Y-106300000D02*
X111400000Y-106400000D01*
X111400000Y-106400000D02*
X111400000Y-106500000D01*
X111400000Y-106500000D02*
X111400000Y-106600000D01*
X111400000Y-106600000D02*
X111400000Y-106700000D01*
X111400000Y-106700000D02*
X111400000Y-106800000D01*
X111400000Y-106800000D02*
X111400000Y-106900000D01*
X111400000Y-106900000D02*
X111400000Y-107000000D01*
X111400000Y-107000000D02*
X111400000Y-107100000D01*
X111400000Y-107100000D02*
X111400000Y-107200000D01*
X111400000Y-107200000D02*
X111400000Y-111800000D01*
X111400000Y-111800000D02*
X113800000Y-114200000D01*
X112400000Y-107200000D02*
X112400000Y-107100000D01*
X112400000Y-107100000D02*
X112400000Y-107000000D01*
X112400000Y-107000000D02*
X112400000Y-106900000D01*
X112400000Y-106900000D02*
X112400000Y-106800000D01*
X112400000Y-106800000D02*
X112400000Y-106700000D01*
X112400000Y-106700000D02*
X112400000Y-106600000D01*
X112400000Y-106600000D02*
X112400000Y-106500000D01*
X112400000Y-106500000D02*
X112400000Y-106400000D01*
X112400000Y-106400000D02*
X112400000Y-106300000D01*
X112400000Y-106300000D02*
X112400000Y-106200000D01*
X112400000Y-107200000D02*
X111400000Y-107200000D01*
X112400000Y-106200000D02*
X111400000Y-106200000D01*
X112400000Y-106700000D02*
X111400000Y-106700000D01*
X112400000Y-106800000D02*
X111400000Y-106800000D01*
X112400000Y-106900000D02*
X111400000Y-106900000D01*
X112400000Y-107000000D02*
X111400000Y-107000000D01*
X112400000Y-107100000D02*
X111400000Y-107100000D01*
X112400000Y-106600000D02*
X111400000Y-106600000D01*
X112400000Y-106500000D02*
X111400000Y-106500000D01*
X112400000Y-106400000D02*
X111400000Y-106400000D01*
X112400000Y-106300000D02*
X111400000Y-106300000D01*
X115100000Y-98700000D02*
X115100000Y-97700000D01*
X114600000Y-98200000D02*
X115600000Y-98200000D01*
X119100000Y-99400000D02*
G75*
G03*
X118600000Y-98900000I-500000J0D01*
G01*
X111600000Y-98900000D02*
G75*
G03*
X111100000Y-99400000I0J-500000D01*
G01*
X118550000Y-99200000D02*
G75*
G02*
X118800000Y-99450000I0J-250000D01*
G01*
X111400000Y-99450000D02*
G75*
G02*
X111650000Y-99200000I250000J0D01*
G01*
D11*
X125460000Y-97740000D02*
X119490000Y-97740000D01*
X119490000Y-97740000D02*
X119490000Y-115360000D01*
X119490000Y-115360000D02*
X125460000Y-115360000D01*
X125460000Y-115360000D02*
X125460000Y-97740000D01*
X125450000Y-101050000D02*
X124700000Y-101050000D01*
X124700000Y-101050000D02*
X124700000Y-112050000D01*
X124700000Y-112050000D02*
X125450000Y-112050000D01*
X125450000Y-112050000D02*
X125450000Y-101050000D01*
X125450000Y-97750000D02*
X124700000Y-97750000D01*
X124700000Y-97750000D02*
X124700000Y-99550000D01*
X124700000Y-99550000D02*
X125450000Y-99550000D01*
X125450000Y-99550000D02*
X125450000Y-97750000D01*
X125450000Y-113550000D02*
X124700000Y-113550000D01*
X124700000Y-113550000D02*
X124700000Y-115350000D01*
X124700000Y-115350000D02*
X125450000Y-115350000D01*
X125450000Y-115350000D02*
X125450000Y-113550000D01*
X123200000Y-97750000D02*
X123200000Y-98500000D01*
X123200000Y-98500000D02*
X120250000Y-98500000D01*
X120250000Y-98500000D02*
X120250000Y-106550000D01*
X123200000Y-115350000D02*
X123200000Y-114600000D01*
X123200000Y-114600000D02*
X120250000Y-114600000D01*
X120250000Y-114600000D02*
X120250000Y-106550000D01*
X125750000Y-98700000D02*
X125750000Y-97450000D01*
X125750000Y-97450000D02*
X124500000Y-97450000D01*
X145600000Y-107850000D02*
X146200000Y-107850000D01*
X144900000Y-109950000D02*
X144900000Y-108550000D01*
X146200000Y-110650000D02*
X145600000Y-110650000D01*
X146900000Y-108550000D02*
X146900000Y-109950000D01*
X146900000Y-109950000D02*
G75*
G02*
X146200000Y-110650000I-700000J0D01*
G01*
X145600000Y-110650000D02*
G75*
G02*
X144900000Y-109950000I0J700000D01*
G01*
X144900000Y-108550000D02*
G75*
G02*
X145600000Y-107850000I700000J0D01*
G01*
X146200000Y-107850000D02*
G75*
G02*
X146900000Y-108550000I0J-700000D01*
G01*
X135700000Y-99180000D02*
X134700000Y-99180000D01*
X134700000Y-97820000D02*
X135700000Y-97820000D01*
X127200000Y-97820000D02*
X128200000Y-97820000D01*
X128200000Y-99180000D02*
X127200000Y-99180000D01*
X128200000Y-101880000D02*
X127200000Y-101880000D01*
X127200000Y-100520000D02*
X128200000Y-100520000D01*
X127200000Y-103420000D02*
X128200000Y-103420000D01*
X128200000Y-104780000D02*
X127200000Y-104780000D01*
X128200000Y-107780000D02*
X127200000Y-107780000D01*
X127200000Y-106420000D02*
X128200000Y-106420000D01*
X127200000Y-109220000D02*
X128200000Y-109220000D01*
X128200000Y-110580000D02*
X127200000Y-110580000D01*
X129700000Y-114320000D02*
X130700000Y-114320000D01*
X130700000Y-115680000D02*
X129700000Y-115680000D01*
X132200000Y-118770000D02*
X130200000Y-118770000D01*
X130200000Y-116630000D02*
X132200000Y-116630000D01*
X133400000Y-107720000D02*
X134400000Y-107720000D01*
X134400000Y-109080000D02*
X133400000Y-109080000D01*
X133400000Y-109220000D02*
X134400000Y-109220000D01*
X134400000Y-110580000D02*
X133400000Y-110580000D01*
X142000000Y-109080000D02*
X141000000Y-109080000D01*
X141000000Y-107720000D02*
X142000000Y-107720000D01*
X142000000Y-110580000D02*
X141000000Y-110580000D01*
X141000000Y-109220000D02*
X142000000Y-109220000D01*
X145600000Y-101880000D02*
X144600000Y-101880000D01*
X144600000Y-100520000D02*
X145600000Y-100520000D01*
X144600000Y-102720000D02*
X145600000Y-102720000D01*
X145600000Y-104080000D02*
X144600000Y-104080000D01*
X145600000Y-105880000D02*
X144600000Y-105880000D01*
X144600000Y-104520000D02*
X145600000Y-104520000D01*
X144600000Y-106020000D02*
X145600000Y-106020000D01*
X145600000Y-107380000D02*
X144600000Y-107380000D01*
X144480000Y-108500000D02*
X144480000Y-109500000D01*
X143120000Y-109500000D02*
X143120000Y-108500000D01*
X146520000Y-104500000D02*
X146520000Y-103500000D01*
X147880000Y-103500000D02*
X147880000Y-104500000D01*
D13*
X141925600Y-114671200D02*
X141229850Y-114671200D01*
X138674400Y-114671200D02*
X138674400Y-115039861D01*
X138674400Y-118328800D02*
X138862150Y-118328800D01*
X141925600Y-118328800D02*
X141925600Y-117960139D01*
X141925600Y-115039861D02*
X141925600Y-114671200D01*
X138674400Y-117960139D02*
X138674400Y-118328800D01*
X138862150Y-114671200D02*
X138674400Y-114671200D01*
X141229850Y-118328800D02*
X141925600Y-118328800D01*
X134770150Y-114671200D02*
X134074400Y-114671200D01*
X137137850Y-118328800D02*
X137325600Y-118328800D01*
X137325600Y-115039861D02*
X137325600Y-114671200D01*
X134074400Y-117960139D02*
X134074400Y-118328800D01*
X134074400Y-114671200D02*
X134074400Y-115039861D01*
X137325600Y-114671200D02*
X137137850Y-114671200D01*
X137325600Y-118328800D02*
X137325600Y-117960139D01*
X134074400Y-118328800D02*
X134770150Y-118328800D01*
D10*
X137838095Y-98052380D02*
X137838095Y-98861904D01*
X137885714Y-98957142D01*
X137933333Y-99004761D01*
X138028571Y-99052380D01*
X138219047Y-99052380D01*
X138314285Y-99004761D01*
X138361904Y-98957142D01*
X138409523Y-98861904D01*
X138409523Y-98052380D01*
X139409523Y-99052380D02*
X138838095Y-99052380D01*
X139123809Y-99052380D02*
X139123809Y-98052380D01*
X139028571Y-98195238D01*
X138933333Y-98290476D01*
X138838095Y-98338095D01*
X129957142Y-97666666D02*
X130004761Y-97714285D01*
X130052380Y-97857142D01*
X130052380Y-97952380D01*
X130004761Y-98095238D01*
X129909523Y-98190476D01*
X129814285Y-98238095D01*
X129623809Y-98285714D01*
X129480952Y-98285714D01*
X129290476Y-98238095D01*
X129195238Y-98190476D01*
X129100000Y-98095238D01*
X129052380Y-97952380D01*
X129052380Y-97857142D01*
X129100000Y-97714285D01*
X129147619Y-97666666D01*
X130052380Y-96714285D02*
X130052380Y-97285714D01*
X130052380Y-97000000D02*
X129052380Y-97000000D01*
X129195238Y-97095238D01*
X129290476Y-97190476D01*
X129338095Y-97285714D01*
X131357142Y-102766666D02*
X131404761Y-102814285D01*
X131452380Y-102957142D01*
X131452380Y-103052380D01*
X131404761Y-103195238D01*
X131309523Y-103290476D01*
X131214285Y-103338095D01*
X131023809Y-103385714D01*
X130880952Y-103385714D01*
X130690476Y-103338095D01*
X130595238Y-103290476D01*
X130500000Y-103195238D01*
X130452380Y-103052380D01*
X130452380Y-102957142D01*
X130500000Y-102814285D01*
X130547619Y-102766666D01*
X130547619Y-102385714D02*
X130500000Y-102338095D01*
X130452380Y-102242857D01*
X130452380Y-102004761D01*
X130500000Y-101909523D01*
X130547619Y-101861904D01*
X130642857Y-101814285D01*
X130738095Y-101814285D01*
X130880952Y-101861904D01*
X131452380Y-102433333D01*
X131452380Y-101814285D01*
X131357142Y-105766666D02*
X131404761Y-105814285D01*
X131452380Y-105957142D01*
X131452380Y-106052380D01*
X131404761Y-106195238D01*
X131309523Y-106290476D01*
X131214285Y-106338095D01*
X131023809Y-106385714D01*
X130880952Y-106385714D01*
X130690476Y-106338095D01*
X130595238Y-106290476D01*
X130500000Y-106195238D01*
X130452380Y-106052380D01*
X130452380Y-105957142D01*
X130500000Y-105814285D01*
X130547619Y-105766666D01*
X130452380Y-105433333D02*
X130452380Y-104814285D01*
X130833333Y-105147619D01*
X130833333Y-105004761D01*
X130880952Y-104909523D01*
X130928571Y-104861904D01*
X131023809Y-104814285D01*
X131261904Y-104814285D01*
X131357142Y-104861904D01*
X131404761Y-104909523D01*
X131452380Y-105004761D01*
X131452380Y-105290476D01*
X131404761Y-105385714D01*
X131357142Y-105433333D01*
X131457142Y-108666666D02*
X131504761Y-108714285D01*
X131552380Y-108857142D01*
X131552380Y-108952380D01*
X131504761Y-109095238D01*
X131409523Y-109190476D01*
X131314285Y-109238095D01*
X131123809Y-109285714D01*
X130980952Y-109285714D01*
X130790476Y-109238095D01*
X130695238Y-109190476D01*
X130600000Y-109095238D01*
X130552380Y-108952380D01*
X130552380Y-108857142D01*
X130600000Y-108714285D01*
X130647619Y-108666666D01*
X130885714Y-107809523D02*
X131552380Y-107809523D01*
X130504761Y-108047619D02*
X131219047Y-108285714D01*
X131219047Y-107666666D01*
X131357142Y-111566666D02*
X131404761Y-111614285D01*
X131452380Y-111757142D01*
X131452380Y-111852380D01*
X131404761Y-111995238D01*
X131309523Y-112090476D01*
X131214285Y-112138095D01*
X131023809Y-112185714D01*
X130880952Y-112185714D01*
X130690476Y-112138095D01*
X130595238Y-112090476D01*
X130500000Y-111995238D01*
X130452380Y-111852380D01*
X130452380Y-111757142D01*
X130500000Y-111614285D01*
X130547619Y-111566666D01*
X130452380Y-110661904D02*
X130452380Y-111138095D01*
X130928571Y-111185714D01*
X130880952Y-111138095D01*
X130833333Y-111042857D01*
X130833333Y-110804761D01*
X130880952Y-110709523D01*
X130928571Y-110661904D01*
X131023809Y-110614285D01*
X131261904Y-110614285D01*
X131357142Y-110661904D01*
X131404761Y-110709523D01*
X131452380Y-110804761D01*
X131452380Y-111042857D01*
X131404761Y-111138095D01*
X131357142Y-111185714D01*
X127933333Y-113957142D02*
X127885714Y-114004761D01*
X127742857Y-114052380D01*
X127647619Y-114052380D01*
X127504761Y-114004761D01*
X127409523Y-113909523D01*
X127361904Y-113814285D01*
X127314285Y-113623809D01*
X127314285Y-113480952D01*
X127361904Y-113290476D01*
X127409523Y-113195238D01*
X127504761Y-113100000D01*
X127647619Y-113052380D01*
X127742857Y-113052380D01*
X127885714Y-113100000D01*
X127933333Y-113147619D01*
X128790476Y-113052380D02*
X128600000Y-113052380D01*
X128504761Y-113100000D01*
X128457142Y-113147619D01*
X128361904Y-113290476D01*
X128314285Y-113480952D01*
X128314285Y-113861904D01*
X128361904Y-113957142D01*
X128409523Y-114004761D01*
X128504761Y-114052380D01*
X128695238Y-114052380D01*
X128790476Y-114004761D01*
X128838095Y-113957142D01*
X128885714Y-113861904D01*
X128885714Y-113623809D01*
X128838095Y-113528571D01*
X128790476Y-113480952D01*
X128695238Y-113433333D01*
X128504761Y-113433333D01*
X128409523Y-113480952D01*
X128361904Y-113528571D01*
X128314285Y-113623809D01*
X132333333Y-97957142D02*
X132285714Y-98004761D01*
X132142857Y-98052380D01*
X132047619Y-98052380D01*
X131904761Y-98004761D01*
X131809523Y-97909523D01*
X131761904Y-97814285D01*
X131714285Y-97623809D01*
X131714285Y-97480952D01*
X131761904Y-97290476D01*
X131809523Y-97195238D01*
X131904761Y-97100000D01*
X132047619Y-97052380D01*
X132142857Y-97052380D01*
X132285714Y-97100000D01*
X132333333Y-97147619D01*
X132666666Y-97052380D02*
X133333333Y-97052380D01*
X132904761Y-98052380D01*
X132333333Y-101857142D02*
X132285714Y-101904761D01*
X132142857Y-101952380D01*
X132047619Y-101952380D01*
X131904761Y-101904761D01*
X131809523Y-101809523D01*
X131761904Y-101714285D01*
X131714285Y-101523809D01*
X131714285Y-101380952D01*
X131761904Y-101190476D01*
X131809523Y-101095238D01*
X131904761Y-101000000D01*
X132047619Y-100952380D01*
X132142857Y-100952380D01*
X132285714Y-101000000D01*
X132333333Y-101047619D01*
X132904761Y-101380952D02*
X132809523Y-101333333D01*
X132761904Y-101285714D01*
X132714285Y-101190476D01*
X132714285Y-101142857D01*
X132761904Y-101047619D01*
X132809523Y-101000000D01*
X132904761Y-100952380D01*
X133095238Y-100952380D01*
X133190476Y-101000000D01*
X133238095Y-101047619D01*
X133285714Y-101142857D01*
X133285714Y-101190476D01*
X133238095Y-101285714D01*
X133190476Y-101333333D01*
X133095238Y-101380952D01*
X132904761Y-101380952D01*
X132809523Y-101428571D01*
X132761904Y-101476190D01*
X132714285Y-101571428D01*
X132714285Y-101761904D01*
X132761904Y-101857142D01*
X132809523Y-101904761D01*
X132904761Y-101952380D01*
X133095238Y-101952380D01*
X133190476Y-101904761D01*
X133238095Y-101857142D01*
X133285714Y-101761904D01*
X133285714Y-101571428D01*
X133238095Y-101476190D01*
X133190476Y-101428571D01*
X133095238Y-101380952D01*
X115607023Y-115657142D02*
X115559404Y-115704761D01*
X115416547Y-115752380D01*
X115321309Y-115752380D01*
X115178452Y-115704761D01*
X115083214Y-115609523D01*
X115035595Y-115514285D01*
X114987976Y-115323809D01*
X114987976Y-115180952D01*
X115035595Y-114990476D01*
X115083214Y-114895238D01*
X115178452Y-114800000D01*
X115321309Y-114752380D01*
X115416547Y-114752380D01*
X115559404Y-114800000D01*
X115607023Y-114847619D01*
X116226071Y-114752380D02*
X116416547Y-114752380D01*
X116511785Y-114800000D01*
X116607023Y-114895238D01*
X116654642Y-115085714D01*
X116654642Y-115419047D01*
X116607023Y-115609523D01*
X116511785Y-115704761D01*
X116416547Y-115752380D01*
X116226071Y-115752380D01*
X116130833Y-115704761D01*
X116035595Y-115609523D01*
X115987976Y-115419047D01*
X115987976Y-115085714D01*
X116035595Y-114895238D01*
X116130833Y-114800000D01*
X116226071Y-114752380D01*
X117083214Y-115752380D02*
X117083214Y-114752380D01*
X117654642Y-115752380D01*
X117654642Y-114752380D01*
X118654642Y-115752380D02*
X118083214Y-115752380D01*
X118368928Y-115752380D02*
X118368928Y-114752380D01*
X118273690Y-114895238D01*
X118178452Y-114990476D01*
X118083214Y-115038095D01*
X122266666Y-96352380D02*
X122266666Y-97066666D01*
X122219047Y-97209523D01*
X122123809Y-97304761D01*
X121980952Y-97352380D01*
X121885714Y-97352380D01*
X123266666Y-97352380D02*
X122695238Y-97352380D01*
X122980952Y-97352380D02*
X122980952Y-96352380D01*
X122885714Y-96495238D01*
X122790476Y-96590476D01*
X122695238Y-96638095D01*
X145452380Y-112733333D02*
X146166666Y-112733333D01*
X146309523Y-112780952D01*
X146404761Y-112876190D01*
X146452380Y-113019047D01*
X146452380Y-113114285D01*
X146452380Y-112257142D02*
X145452380Y-112257142D01*
X145452380Y-111876190D01*
X145500000Y-111780952D01*
X145547619Y-111733333D01*
X145642857Y-111685714D01*
X145785714Y-111685714D01*
X145880952Y-111733333D01*
X145928571Y-111780952D01*
X145976190Y-111876190D01*
X145976190Y-112257142D01*
X146452380Y-110733333D02*
X146452380Y-111304761D01*
X146452380Y-111019047D02*
X145452380Y-111019047D01*
X145595238Y-111114285D01*
X145690476Y-111209523D01*
X145738095Y-111304761D01*
X135033333Y-97652380D02*
X134700000Y-97176190D01*
X134461904Y-97652380D02*
X134461904Y-96652380D01*
X134842857Y-96652380D01*
X134938095Y-96700000D01*
X134985714Y-96747619D01*
X135033333Y-96842857D01*
X135033333Y-96985714D01*
X134985714Y-97080952D01*
X134938095Y-97128571D01*
X134842857Y-97176190D01*
X134461904Y-97176190D01*
X135985714Y-97652380D02*
X135414285Y-97652380D01*
X135700000Y-97652380D02*
X135700000Y-96652380D01*
X135604761Y-96795238D01*
X135509523Y-96890476D01*
X135414285Y-96938095D01*
X127533333Y-97652380D02*
X127200000Y-97176190D01*
X126961904Y-97652380D02*
X126961904Y-96652380D01*
X127342857Y-96652380D01*
X127438095Y-96700000D01*
X127485714Y-96747619D01*
X127533333Y-96842857D01*
X127533333Y-96985714D01*
X127485714Y-97080952D01*
X127438095Y-97128571D01*
X127342857Y-97176190D01*
X126961904Y-97176190D01*
X127914285Y-96747619D02*
X127961904Y-96700000D01*
X128057142Y-96652380D01*
X128295238Y-96652380D01*
X128390476Y-96700000D01*
X128438095Y-96747619D01*
X128485714Y-96842857D01*
X128485714Y-96938095D01*
X128438095Y-97080952D01*
X127866666Y-97652380D01*
X128485714Y-97652380D01*
X127533333Y-100352380D02*
X127200000Y-99876190D01*
X126961904Y-100352380D02*
X126961904Y-99352380D01*
X127342857Y-99352380D01*
X127438095Y-99400000D01*
X127485714Y-99447619D01*
X127533333Y-99542857D01*
X127533333Y-99685714D01*
X127485714Y-99780952D01*
X127438095Y-99828571D01*
X127342857Y-99876190D01*
X126961904Y-99876190D01*
X127866666Y-99352380D02*
X128485714Y-99352380D01*
X128152380Y-99733333D01*
X128295238Y-99733333D01*
X128390476Y-99780952D01*
X128438095Y-99828571D01*
X128485714Y-99923809D01*
X128485714Y-100161904D01*
X128438095Y-100257142D01*
X128390476Y-100304761D01*
X128295238Y-100352380D01*
X128009523Y-100352380D01*
X127914285Y-100304761D01*
X127866666Y-100257142D01*
X127533333Y-103252380D02*
X127200000Y-102776190D01*
X126961904Y-103252380D02*
X126961904Y-102252380D01*
X127342857Y-102252380D01*
X127438095Y-102300000D01*
X127485714Y-102347619D01*
X127533333Y-102442857D01*
X127533333Y-102585714D01*
X127485714Y-102680952D01*
X127438095Y-102728571D01*
X127342857Y-102776190D01*
X126961904Y-102776190D01*
X128390476Y-102585714D02*
X128390476Y-103252380D01*
X128152380Y-102204761D02*
X127914285Y-102919047D01*
X128533333Y-102919047D01*
X127533333Y-106252380D02*
X127200000Y-105776190D01*
X126961904Y-106252380D02*
X126961904Y-105252380D01*
X127342857Y-105252380D01*
X127438095Y-105300000D01*
X127485714Y-105347619D01*
X127533333Y-105442857D01*
X127533333Y-105585714D01*
X127485714Y-105680952D01*
X127438095Y-105728571D01*
X127342857Y-105776190D01*
X126961904Y-105776190D01*
X128438095Y-105252380D02*
X127961904Y-105252380D01*
X127914285Y-105728571D01*
X127961904Y-105680952D01*
X128057142Y-105633333D01*
X128295238Y-105633333D01*
X128390476Y-105680952D01*
X128438095Y-105728571D01*
X128485714Y-105823809D01*
X128485714Y-106061904D01*
X128438095Y-106157142D01*
X128390476Y-106204761D01*
X128295238Y-106252380D01*
X128057142Y-106252380D01*
X127961904Y-106204761D01*
X127914285Y-106157142D01*
X127533333Y-109052380D02*
X127200000Y-108576190D01*
X126961904Y-109052380D02*
X126961904Y-108052380D01*
X127342857Y-108052380D01*
X127438095Y-108100000D01*
X127485714Y-108147619D01*
X127533333Y-108242857D01*
X127533333Y-108385714D01*
X127485714Y-108480952D01*
X127438095Y-108528571D01*
X127342857Y-108576190D01*
X126961904Y-108576190D01*
X128390476Y-108052380D02*
X128200000Y-108052380D01*
X128104761Y-108100000D01*
X128057142Y-108147619D01*
X127961904Y-108290476D01*
X127914285Y-108480952D01*
X127914285Y-108861904D01*
X127961904Y-108957142D01*
X128009523Y-109004761D01*
X128104761Y-109052380D01*
X128295238Y-109052380D01*
X128390476Y-109004761D01*
X128438095Y-108957142D01*
X128485714Y-108861904D01*
X128485714Y-108623809D01*
X128438095Y-108528571D01*
X128390476Y-108480952D01*
X128295238Y-108433333D01*
X128104761Y-108433333D01*
X128009523Y-108480952D01*
X127961904Y-108528571D01*
X127914285Y-108623809D01*
X127833333Y-115452380D02*
X127500000Y-114976190D01*
X127261904Y-115452380D02*
X127261904Y-114452380D01*
X127642857Y-114452380D01*
X127738095Y-114500000D01*
X127785714Y-114547619D01*
X127833333Y-114642857D01*
X127833333Y-114785714D01*
X127785714Y-114880952D01*
X127738095Y-114928571D01*
X127642857Y-114976190D01*
X127261904Y-114976190D01*
X128166666Y-114452380D02*
X128833333Y-114452380D01*
X128404761Y-115452380D01*
X132133333Y-116452380D02*
X131800000Y-115976190D01*
X131561904Y-116452380D02*
X131561904Y-115452380D01*
X131942857Y-115452380D01*
X132038095Y-115500000D01*
X132085714Y-115547619D01*
X132133333Y-115642857D01*
X132133333Y-115785714D01*
X132085714Y-115880952D01*
X132038095Y-115928571D01*
X131942857Y-115976190D01*
X131561904Y-115976190D01*
X132704761Y-115880952D02*
X132609523Y-115833333D01*
X132561904Y-115785714D01*
X132514285Y-115690476D01*
X132514285Y-115642857D01*
X132561904Y-115547619D01*
X132609523Y-115500000D01*
X132704761Y-115452380D01*
X132895238Y-115452380D01*
X132990476Y-115500000D01*
X133038095Y-115547619D01*
X133085714Y-115642857D01*
X133085714Y-115690476D01*
X133038095Y-115785714D01*
X132990476Y-115833333D01*
X132895238Y-115880952D01*
X132704761Y-115880952D01*
X132609523Y-115928571D01*
X132561904Y-115976190D01*
X132514285Y-116071428D01*
X132514285Y-116261904D01*
X132561904Y-116357142D01*
X132609523Y-116404761D01*
X132704761Y-116452380D01*
X132895238Y-116452380D01*
X132990476Y-116404761D01*
X133038095Y-116357142D01*
X133085714Y-116261904D01*
X133085714Y-116071428D01*
X133038095Y-115976190D01*
X132990476Y-115928571D01*
X132895238Y-115880952D01*
X135633333Y-108852380D02*
X135300000Y-108376190D01*
X135061904Y-108852380D02*
X135061904Y-107852380D01*
X135442857Y-107852380D01*
X135538095Y-107900000D01*
X135585714Y-107947619D01*
X135633333Y-108042857D01*
X135633333Y-108185714D01*
X135585714Y-108280952D01*
X135538095Y-108328571D01*
X135442857Y-108376190D01*
X135061904Y-108376190D01*
X136109523Y-108852380D02*
X136300000Y-108852380D01*
X136395238Y-108804761D01*
X136442857Y-108757142D01*
X136538095Y-108614285D01*
X136585714Y-108423809D01*
X136585714Y-108042857D01*
X136538095Y-107947619D01*
X136490476Y-107900000D01*
X136395238Y-107852380D01*
X136204761Y-107852380D01*
X136109523Y-107900000D01*
X136061904Y-107947619D01*
X136014285Y-108042857D01*
X136014285Y-108280952D01*
X136061904Y-108376190D01*
X136109523Y-108423809D01*
X136204761Y-108471428D01*
X136395238Y-108471428D01*
X136490476Y-108423809D01*
X136538095Y-108376190D01*
X136585714Y-108280952D01*
X135657142Y-110352380D02*
X135323809Y-109876190D01*
X135085714Y-110352380D02*
X135085714Y-109352380D01*
X135466666Y-109352380D01*
X135561904Y-109400000D01*
X135609523Y-109447619D01*
X135657142Y-109542857D01*
X135657142Y-109685714D01*
X135609523Y-109780952D01*
X135561904Y-109828571D01*
X135466666Y-109876190D01*
X135085714Y-109876190D01*
X136609523Y-110352380D02*
X136038095Y-110352380D01*
X136323809Y-110352380D02*
X136323809Y-109352380D01*
X136228571Y-109495238D01*
X136133333Y-109590476D01*
X136038095Y-109638095D01*
X137228571Y-109352380D02*
X137323809Y-109352380D01*
X137419047Y-109400000D01*
X137466666Y-109447619D01*
X137514285Y-109542857D01*
X137561904Y-109733333D01*
X137561904Y-109971428D01*
X137514285Y-110161904D01*
X137466666Y-110257142D01*
X137419047Y-110304761D01*
X137323809Y-110352380D01*
X137228571Y-110352380D01*
X137133333Y-110304761D01*
X137085714Y-110257142D01*
X137038095Y-110161904D01*
X136990476Y-109971428D01*
X136990476Y-109733333D01*
X137038095Y-109542857D01*
X137085714Y-109447619D01*
X137133333Y-109400000D01*
X137228571Y-109352380D01*
X138457142Y-108852380D02*
X138123809Y-108376190D01*
X137885714Y-108852380D02*
X137885714Y-107852380D01*
X138266666Y-107852380D01*
X138361904Y-107900000D01*
X138409523Y-107947619D01*
X138457142Y-108042857D01*
X138457142Y-108185714D01*
X138409523Y-108280952D01*
X138361904Y-108328571D01*
X138266666Y-108376190D01*
X137885714Y-108376190D01*
X139409523Y-108852380D02*
X138838095Y-108852380D01*
X139123809Y-108852380D02*
X139123809Y-107852380D01*
X139028571Y-107995238D01*
X138933333Y-108090476D01*
X138838095Y-108138095D01*
X140361904Y-108852380D02*
X139790476Y-108852380D01*
X140076190Y-108852380D02*
X140076190Y-107852380D01*
X139980952Y-107995238D01*
X139885714Y-108090476D01*
X139790476Y-108138095D01*
X138457142Y-110352380D02*
X138123809Y-109876190D01*
X137885714Y-110352380D02*
X137885714Y-109352380D01*
X138266666Y-109352380D01*
X138361904Y-109400000D01*
X138409523Y-109447619D01*
X138457142Y-109542857D01*
X138457142Y-109685714D01*
X138409523Y-109780952D01*
X138361904Y-109828571D01*
X138266666Y-109876190D01*
X137885714Y-109876190D01*
X139409523Y-110352380D02*
X138838095Y-110352380D01*
X139123809Y-110352380D02*
X139123809Y-109352380D01*
X139028571Y-109495238D01*
X138933333Y-109590476D01*
X138838095Y-109638095D01*
X139790476Y-109447619D02*
X139838095Y-109400000D01*
X139933333Y-109352380D01*
X140171428Y-109352380D01*
X140266666Y-109400000D01*
X140314285Y-109447619D01*
X140361904Y-109542857D01*
X140361904Y-109638095D01*
X140314285Y-109780952D01*
X139742857Y-110352380D01*
X140361904Y-110352380D01*
X142057142Y-101652380D02*
X141723809Y-101176190D01*
X141485714Y-101652380D02*
X141485714Y-100652380D01*
X141866666Y-100652380D01*
X141961904Y-100700000D01*
X142009523Y-100747619D01*
X142057142Y-100842857D01*
X142057142Y-100985714D01*
X142009523Y-101080952D01*
X141961904Y-101128571D01*
X141866666Y-101176190D01*
X141485714Y-101176190D01*
X143009523Y-101652380D02*
X142438095Y-101652380D01*
X142723809Y-101652380D02*
X142723809Y-100652380D01*
X142628571Y-100795238D01*
X142533333Y-100890476D01*
X142438095Y-100938095D01*
X143342857Y-100652380D02*
X143961904Y-100652380D01*
X143628571Y-101033333D01*
X143771428Y-101033333D01*
X143866666Y-101080952D01*
X143914285Y-101128571D01*
X143961904Y-101223809D01*
X143961904Y-101461904D01*
X143914285Y-101557142D01*
X143866666Y-101604761D01*
X143771428Y-101652380D01*
X143485714Y-101652380D01*
X143390476Y-101604761D01*
X143342857Y-101557142D01*
X142057142Y-103852380D02*
X141723809Y-103376190D01*
X141485714Y-103852380D02*
X141485714Y-102852380D01*
X141866666Y-102852380D01*
X141961904Y-102900000D01*
X142009523Y-102947619D01*
X142057142Y-103042857D01*
X142057142Y-103185714D01*
X142009523Y-103280952D01*
X141961904Y-103328571D01*
X141866666Y-103376190D01*
X141485714Y-103376190D01*
X143009523Y-103852380D02*
X142438095Y-103852380D01*
X142723809Y-103852380D02*
X142723809Y-102852380D01*
X142628571Y-102995238D01*
X142533333Y-103090476D01*
X142438095Y-103138095D01*
X143866666Y-103185714D02*
X143866666Y-103852380D01*
X143628571Y-102804761D02*
X143390476Y-103519047D01*
X144009523Y-103519047D01*
X142057142Y-105752380D02*
X141723809Y-105276190D01*
X141485714Y-105752380D02*
X141485714Y-104752380D01*
X141866666Y-104752380D01*
X141961904Y-104800000D01*
X142009523Y-104847619D01*
X142057142Y-104942857D01*
X142057142Y-105085714D01*
X142009523Y-105180952D01*
X141961904Y-105228571D01*
X141866666Y-105276190D01*
X141485714Y-105276190D01*
X143009523Y-105752380D02*
X142438095Y-105752380D01*
X142723809Y-105752380D02*
X142723809Y-104752380D01*
X142628571Y-104895238D01*
X142533333Y-104990476D01*
X142438095Y-105038095D01*
X143914285Y-104752380D02*
X143438095Y-104752380D01*
X143390476Y-105228571D01*
X143438095Y-105180952D01*
X143533333Y-105133333D01*
X143771428Y-105133333D01*
X143866666Y-105180952D01*
X143914285Y-105228571D01*
X143961904Y-105323809D01*
X143961904Y-105561904D01*
X143914285Y-105657142D01*
X143866666Y-105704761D01*
X143771428Y-105752380D01*
X143533333Y-105752380D01*
X143438095Y-105704761D01*
X143390476Y-105657142D01*
X142057142Y-107152380D02*
X141723809Y-106676190D01*
X141485714Y-107152380D02*
X141485714Y-106152380D01*
X141866666Y-106152380D01*
X141961904Y-106200000D01*
X142009523Y-106247619D01*
X142057142Y-106342857D01*
X142057142Y-106485714D01*
X142009523Y-106580952D01*
X141961904Y-106628571D01*
X141866666Y-106676190D01*
X141485714Y-106676190D01*
X143009523Y-107152380D02*
X142438095Y-107152380D01*
X142723809Y-107152380D02*
X142723809Y-106152380D01*
X142628571Y-106295238D01*
X142533333Y-106390476D01*
X142438095Y-106438095D01*
X143866666Y-106152380D02*
X143676190Y-106152380D01*
X143580952Y-106200000D01*
X143533333Y-106247619D01*
X143438095Y-106390476D01*
X143390476Y-106580952D01*
X143390476Y-106961904D01*
X143438095Y-107057142D01*
X143485714Y-107104761D01*
X143580952Y-107152380D01*
X143771428Y-107152380D01*
X143866666Y-107104761D01*
X143914285Y-107057142D01*
X143961904Y-106961904D01*
X143961904Y-106723809D01*
X143914285Y-106628571D01*
X143866666Y-106580952D01*
X143771428Y-106533333D01*
X143580952Y-106533333D01*
X143485714Y-106580952D01*
X143438095Y-106628571D01*
X143390476Y-106723809D01*
X144252380Y-112042857D02*
X143776190Y-112376190D01*
X144252380Y-112614285D02*
X143252380Y-112614285D01*
X143252380Y-112233333D01*
X143300000Y-112138095D01*
X143347619Y-112090476D01*
X143442857Y-112042857D01*
X143585714Y-112042857D01*
X143680952Y-112090476D01*
X143728571Y-112138095D01*
X143776190Y-112233333D01*
X143776190Y-112614285D01*
X144252380Y-111090476D02*
X144252380Y-111661904D01*
X144252380Y-111376190D02*
X143252380Y-111376190D01*
X143395238Y-111471428D01*
X143490476Y-111566666D01*
X143538095Y-111661904D01*
X143252380Y-110757142D02*
X143252380Y-110090476D01*
X144252380Y-110519047D01*
X149102380Y-104642857D02*
X148626190Y-104976190D01*
X149102380Y-105214285D02*
X148102380Y-105214285D01*
X148102380Y-104833333D01*
X148150000Y-104738095D01*
X148197619Y-104690476D01*
X148292857Y-104642857D01*
X148435714Y-104642857D01*
X148530952Y-104690476D01*
X148578571Y-104738095D01*
X148626190Y-104833333D01*
X148626190Y-105214285D01*
X149102380Y-103690476D02*
X149102380Y-104261904D01*
X149102380Y-103976190D02*
X148102380Y-103976190D01*
X148245238Y-104071428D01*
X148340476Y-104166666D01*
X148388095Y-104261904D01*
X148530952Y-103119047D02*
X148483333Y-103214285D01*
X148435714Y-103261904D01*
X148340476Y-103309523D01*
X148292857Y-103309523D01*
X148197619Y-103261904D01*
X148150000Y-103214285D01*
X148102380Y-103119047D01*
X148102380Y-102928571D01*
X148150000Y-102833333D01*
X148197619Y-102785714D01*
X148292857Y-102738095D01*
X148340476Y-102738095D01*
X148435714Y-102785714D01*
X148483333Y-102833333D01*
X148530952Y-102928571D01*
X148530952Y-103119047D01*
X148578571Y-103214285D01*
X148626190Y-103261904D01*
X148721428Y-103309523D01*
X148911904Y-103309523D01*
X149007142Y-103261904D01*
X149054761Y-103214285D01*
X149102380Y-103119047D01*
X149102380Y-102928571D01*
X149054761Y-102833333D01*
X149007142Y-102785714D01*
X148911904Y-102738095D01*
X148721428Y-102738095D01*
X148626190Y-102785714D01*
X148578571Y-102833333D01*
X148530952Y-102928571D01*
X139538095Y-113352380D02*
X139538095Y-114161904D01*
X139585714Y-114257142D01*
X139633333Y-114304761D01*
X139728571Y-114352380D01*
X139919047Y-114352380D01*
X140014285Y-114304761D01*
X140061904Y-114257142D01*
X140109523Y-114161904D01*
X140109523Y-113352380D01*
X140538095Y-113447619D02*
X140585714Y-113400000D01*
X140680952Y-113352380D01*
X140919047Y-113352380D01*
X141014285Y-113400000D01*
X141061904Y-113447619D01*
X141109523Y-113542857D01*
X141109523Y-113638095D01*
X141061904Y-113780952D01*
X140490476Y-114352380D01*
X141109523Y-114352380D01*
X142300000Y-117552380D02*
X142300000Y-117790476D01*
X142061904Y-117695238D02*
X142300000Y-117790476D01*
X142538095Y-117695238D01*
X142157142Y-117980952D02*
X142300000Y-117790476D01*
X142442857Y-117980952D01*
X134938095Y-113352380D02*
X134938095Y-114161904D01*
X134985714Y-114257142D01*
X135033333Y-114304761D01*
X135128571Y-114352380D01*
X135319047Y-114352380D01*
X135414285Y-114304761D01*
X135461904Y-114257142D01*
X135509523Y-114161904D01*
X135509523Y-113352380D01*
X135890476Y-113352380D02*
X136509523Y-113352380D01*
X136176190Y-113733333D01*
X136319047Y-113733333D01*
X136414285Y-113780952D01*
X136461904Y-113828571D01*
X136509523Y-113923809D01*
X136509523Y-114161904D01*
X136461904Y-114257142D01*
X136414285Y-114304761D01*
X136319047Y-114352380D01*
X136033333Y-114352380D01*
X135938095Y-114304761D01*
X135890476Y-114257142D01*
X133700000Y-114352380D02*
X133700000Y-114590476D01*
X133461904Y-114495238D02*
X133700000Y-114590476D01*
X133938095Y-114495238D01*
X133557142Y-114780952D02*
X133700000Y-114590476D01*
X133842857Y-114780952D01*
M02*
