M48
; DRILL file {KiCad (5.1.10)-1} date 09/05/21 16:58:36
; FORMAT={3:3/ absolute / metric / suppress leading zeros}
; #@! TF.CreationDate,2021-09-05T16:58:36+09:00
; #@! TF.GenerationSoftware,Kicad,Pcbnew,(5.1.10)-1
FMAT,2
METRIC,TZ
T1C0.300
T2C0.950
T3C1.000
T4C4.500
%
G90
G05
T1
X127200Y-116900
X127200Y-117600
X127200Y-118300
X127900Y-116900
X127900Y-117600
X127900Y-118300
X128600Y-116900
X128600Y-117600
X128600Y-118300
X130245Y-111471
X130875Y-100200
X130940Y-99300
X131200Y-112700
X133600Y-105300
X136400Y-114800
X136400Y-118200
X138000Y-115000
X138000Y-118000
X139600Y-114800
X139600Y-118200
X141500Y-100100
X141500Y-102400
X143500Y-116000
X143500Y-116700
X143500Y-117400
X143500Y-118100
X144200Y-115300
X144200Y-116000
X144200Y-116700
X144200Y-117400
X144200Y-118100
X144900Y-114600
X144900Y-115300
X144900Y-116000
X144900Y-116700
X144900Y-117400
X144900Y-118100
X145800Y-102400
X145900Y-104350
T2
X123000Y-100300
X123000Y-102800
X123000Y-105300
X123000Y-107800
X123000Y-110300
X123000Y-112800
T3
X151460Y-102280
X151460Y-104820
X151460Y-107360
X151460Y-109900
X154000Y-102280
X154000Y-104820
X154000Y-107360
X154000Y-109900
T4
X115100Y-103100
X115100Y-110300
T0
M30
