G04 #@! TF.GenerationSoftware,KiCad,Pcbnew,(5.1.10)-1*
G04 #@! TF.CreationDate,2021-09-05T18:13:48+09:00*
G04 #@! TF.ProjectId,CellBalancing_BQ77915_5S,43656c6c-4261-46c6-916e-63696e675f42,rev?*
G04 #@! TF.SameCoordinates,Original*
G04 #@! TF.FileFunction,Legend,Bot*
G04 #@! TF.FilePolarity,Positive*
%FSLAX46Y46*%
G04 Gerber Fmt 4.6, Leading zero omitted, Abs format (unit mm)*
G04 Created by KiCad (PCBNEW (5.1.10)-1) date 2021-09-05 18:13:48*
%MOMM*%
%LPD*%
G01*
G04 APERTURE LIST*
%ADD10C,0.120000*%
%ADD11C,0.150000*%
G04 APERTURE END LIST*
D10*
X119700000Y-105200000D02*
X119700000Y-108000000D01*
X119700000Y-108000000D02*
X121700000Y-108000000D01*
X121700000Y-108000000D02*
X121700000Y-105200000D01*
X121700000Y-105200000D02*
X119700000Y-105200000D01*
X155330000Y-111230000D02*
X154060000Y-111230000D01*
X155330000Y-109900000D02*
X155330000Y-111230000D01*
X152730000Y-108630000D02*
X155330000Y-108630000D01*
X152730000Y-111230000D02*
X152730000Y-108630000D01*
X150130000Y-111230000D02*
X152730000Y-111230000D01*
X150130000Y-100950000D02*
X150130000Y-111230000D01*
X155330000Y-100950000D02*
X150130000Y-100950000D01*
X155330000Y-108630000D02*
X155330000Y-100950000D01*
D11*
X118352380Y-105314285D02*
X118352380Y-105885714D01*
X119352380Y-105600000D02*
X118352380Y-105600000D01*
X119352380Y-106219047D02*
X118352380Y-106219047D01*
X118828571Y-106219047D02*
X118828571Y-106790476D01*
X119352380Y-106790476D02*
X118352380Y-106790476D01*
X119352380Y-107790476D02*
X119352380Y-107219047D01*
X119352380Y-107504761D02*
X118352380Y-107504761D01*
X118495238Y-107409523D01*
X118590476Y-107314285D01*
X118638095Y-107219047D01*
X153063333Y-111682380D02*
X153063333Y-112396666D01*
X153110952Y-112539523D01*
X153206190Y-112634761D01*
X153349047Y-112682380D01*
X153444285Y-112682380D01*
X152634761Y-111777619D02*
X152587142Y-111730000D01*
X152491904Y-111682380D01*
X152253809Y-111682380D01*
X152158571Y-111730000D01*
X152110952Y-111777619D01*
X152063333Y-111872857D01*
X152063333Y-111968095D01*
X152110952Y-112110952D01*
X152682380Y-112682380D01*
X152063333Y-112682380D01*
M02*
